<svg xmlns="http://www.w3.org/2000/svg" xmlns:xlink="http://www.w3.org/1999/xlink" width="512" zoomAndPan="magnify" viewBox="0 0 384 383.999986" height="512" preserveAspectRatio="xMidYMid meet" version="1.0"><defs><clipPath id="20b416440e"><path d="M 4.648438 16 L 378 16 L 378 381.792969 L 4.648438 381.792969 Z M 4.648438 16 " clip-rule="nonzero"/></clipPath><clipPath id="1b7515fda7"><path d="M 307 35 L 349 35 L 349 77 L 307 77 Z M 307 35 " clip-rule="nonzero"/></clipPath><clipPath id="959b2cfda6"><path d="M 287.484375 57.03125 L 326.675781 15.625 L 368.078125 54.816406 L 328.886719 96.21875 Z M 287.484375 57.03125 " clip-rule="nonzero"/></clipPath><clipPath id="2a1f9ff606"><path d="M 287.484375 57.03125 L 326.675781 15.625 L 368.078125 54.816406 L 328.886719 96.21875 Z M 287.484375 57.03125 " clip-rule="nonzero"/></clipPath><clipPath id="146d2e7570"><path d="M 341 86 L 381 86 L 381 126 L 341 126 Z M 341 86 " clip-rule="nonzero"/></clipPath><clipPath id="8f16caf21f"><path d="M 334.082031 93.425781 L 373.183594 78.636719 L 387.972656 117.742188 L 348.871094 132.53125 Z M 334.082031 93.425781 " clip-rule="nonzero"/></clipPath><clipPath id="e696ccae48"><path d="M 334.082031 93.425781 L 373.183594 78.636719 L 387.972656 117.742188 L 348.871094 132.53125 Z M 334.082031 93.425781 " clip-rule="nonzero"/></clipPath><clipPath id="31f91b3a37"><path d="M 359 137 L 384 137 L 384 163 L 359 163 Z M 359 137 " clip-rule="nonzero"/></clipPath><clipPath id="1b80b7f8f2"><path d="M 357.859375 139.03125 L 383.195312 135.007812 L 387.21875 160.34375 L 361.882812 164.367188 Z M 357.859375 139.03125 " clip-rule="nonzero"/></clipPath><clipPath id="6b8ab5a93d"><path d="M 357.859375 139.03125 L 383.195312 135.007812 L 387.21875 160.34375 L 361.882812 164.367188 Z M 357.859375 139.03125 " clip-rule="nonzero"/></clipPath><clipPath id="d2e8db9084"><path d="M 256 3 L 297 3 L 297 44 L 256 44 Z M 256 3 " clip-rule="nonzero"/></clipPath><clipPath id="6051d8e17f"><path d="M 262.03125 -2.25 L 302.167969 9.441406 L 290.480469 49.578125 L 250.339844 37.890625 Z M 262.03125 -2.25 " clip-rule="nonzero"/></clipPath><clipPath id="f06d078159"><path d="M 262.03125 -2.25 L 302.167969 9.441406 L 290.480469 49.578125 L 250.339844 37.890625 Z M 262.03125 -2.25 " clip-rule="nonzero"/></clipPath><clipPath id="9c7e8b97cc"><path d="M 213 1 L 239 1 L 239 28 L 213 28 Z M 213 1 " clip-rule="nonzero"/></clipPath><clipPath id="f13cd7bd06"><path d="M 213.804688 27.777344 L 212.539062 2.15625 L 238.160156 0.886719 L 239.425781 26.511719 Z M 213.804688 27.777344 " clip-rule="nonzero"/></clipPath><clipPath id="0a39afea86"><path d="M 213.804688 27.777344 L 212.539062 2.15625 L 238.160156 0.886719 L 239.425781 26.511719 Z M 213.804688 27.777344 " clip-rule="nonzero"/></clipPath></defs><rect x="-38.4" width="460.8" fill="#ffffff" y="-38.399999" height="460.799983" fill-opacity="1"/><rect x="-38.4" width="460.8" fill="#ffffff" y="-38.399999" height="460.799983" fill-opacity="1"/><rect x="-38.4" width="460.8" fill="#ffffff" y="-38.399999" height="460.799983" fill-opacity="1"/><g clip-path="url(#20b416440e)"><path fill="#00bf63" d="M 187.253906 16.128906 L 187.253906 16.132812 C 138.824219 16.132812 92.378906 35.367188 58.132812 69.601562 C 23.886719 103.84375 4.648438 150.277344 4.648438 198.699219 C 4.648438 247.117188 23.886719 293.554688 58.132812 327.796875 C 92.378906 362.03125 138.824219 381.269531 187.253906 381.269531 C 190.671875 381.269531 194.085938 381.121094 197.496094 380.90625 C 150.390625 379.039062 105.84375 359.027344 73.15625 325.066406 C 40.472656 291.109375 22.1875 245.828125 22.128906 198.699219 C 22.128906 152.0625 40.023438 107.203125 72.078125 73.320312 C 104.132812 39.441406 147.941406 19.105469 194.515625 16.496094 C 192.097656 16.324219 189.679688 16.199219 187.253906 16.132812 Z M 200.953125 117.734375 L 76.019531 234.136719 L 201.261719 164.730469 L 337.773438 243.066406 L 291.460938 200.636719 L 292.324219 200.636719 L 292.324219 155.96875 L 267.070312 155.96875 L 267.070312 178.296875 Z M 375.152344 173.402344 C 375.152344 173.402344 375.152344 173.402344 375.152344 173.476562 C 375.148438 173.476562 375.148438 173.476562 375.152344 173.402344 Z M 375.152344 173.476562 C 378.53125 216.902344 364.984375 259.957031 337.351562 293.632812 C 309.710938 327.320312 270.105469 349.019531 226.828125 354.183594 C 183.992188 359.226562 140.855469 347.6875 106.257812 321.933594 C 71.660156 296.183594 48.234375 258.171875 40.78125 215.699219 C 40.886719 217.9375 41.042969 220.175781 41.234375 222.40625 C 46.488281 266.867188 69.195312 307.417969 104.351562 335.140625 C 139.515625 362.867188 184.25 375.488281 228.726562 370.238281 C 273.191406 364.984375 313.753906 342.28125 341.484375 307.132812 C 369.214844 271.980469 381.847656 227.253906 376.589844 182.792969 C 376.203125 179.675781 375.714844 176.566406 375.148438 173.476562 Z M 178.074219 195.386719 L 178.074219 216.207031 L 198.898438 216.207031 L 198.898438 195.386719 Z M 204.894531 195.386719 L 204.894531 216.207031 L 225.722656 216.207031 L 225.722656 195.386719 Z M 178.074219 221.152344 L 178.074219 241.972656 L 198.898438 241.972656 L 198.898438 221.152344 Z M 205.421875 221.152344 L 205.421875 241.972656 L 226.25 241.972656 L 226.25 221.152344 Z M 205.421875 221.152344 " fill-opacity="1" fill-rule="nonzero"/></g><g clip-path="url(#1b7515fda7)"><g clip-path="url(#959b2cfda6)"><g clip-path="url(#2a1f9ff606)"><path fill="#edb66d" d="M 307.078125 36.328125 C 318.511719 47.148438 319.007812 65.191406 308.1875 76.625 C 319.007812 65.191406 337.050781 64.695312 348.484375 75.519531 C 337.050781 64.695312 336.554688 46.65625 347.375 35.222656 C 336.554688 46.65625 318.511719 47.148438 307.078125 36.328125 Z M 307.078125 36.328125 " fill-opacity="1" fill-rule="nonzero"/></g></g></g><g clip-path="url(#146d2e7570)"><g clip-path="url(#8f16caf21f)"><g clip-path="url(#e696ccae48)"><path fill="#edb66d" d="M 353.632812 86.03125 C 357.714844 96.832031 352.273438 108.894531 341.476562 112.980469 C 352.273438 108.894531 364.335938 114.339844 368.421875 125.136719 C 364.335938 114.339844 369.78125 102.273438 380.578125 98.191406 C 369.78125 102.273438 357.714844 96.832031 353.632812 86.03125 Z M 353.632812 86.03125 " fill-opacity="1" fill-rule="nonzero"/></g></g></g><g clip-path="url(#31f91b3a37)"><g clip-path="url(#1b80b7f8f2)"><g clip-path="url(#6b8ab5a93d)"><path fill="#edb66d" d="M 370.527344 137.019531 C 371.640625 144.015625 366.867188 150.585938 359.871094 151.699219 C 366.867188 150.585938 373.441406 155.359375 374.550781 162.355469 C 373.441406 155.359375 378.210938 148.785156 385.207031 147.675781 C 378.210938 148.785156 371.640625 144.015625 370.527344 137.019531 Z M 370.527344 137.019531 " fill-opacity="1" fill-rule="nonzero"/></g></g></g><g clip-path="url(#d2e8db9084)"><g clip-path="url(#6051d8e17f)"><g clip-path="url(#f06d078159)"><path fill="#edb66d" d="M 282.101562 3.59375 C 278.871094 14.679688 267.269531 21.046875 256.183594 17.820312 C 267.269531 21.046875 273.636719 32.652344 270.410156 43.734375 C 273.636719 32.652344 285.242188 26.28125 296.324219 29.511719 C 285.242188 26.28125 278.871094 14.679688 282.101562 3.59375 Z M 282.101562 3.59375 " fill-opacity="1" fill-rule="nonzero"/></g></g></g><g clip-path="url(#9c7e8b97cc)"><g clip-path="url(#f13cd7bd06)"><g clip-path="url(#0a39afea86)"><path fill="#edb66d" d="M 213.171875 14.964844 C 220.246094 14.617188 226.265625 20.070312 226.617188 27.144531 C 226.265625 20.070312 231.71875 14.050781 238.796875 13.699219 C 231.71875 14.050781 225.699219 8.597656 225.351562 1.523438 C 225.699219 8.597656 220.246094 14.617188 213.171875 14.964844 Z M 213.171875 14.964844 " fill-opacity="1" fill-rule="nonzero"/></g></g></g></svg>