<svg xmlns="http://www.w3.org/2000/svg" xmlns:xlink="http://www.w3.org/1999/xlink" width="512" zoomAndPan="magnify" viewBox="0 0 384 383.999986" height="512" preserveAspectRatio="xMidYMid meet" version="1.0"><defs><g/><clipPath id="87edb4af60"><path d="M 39.816406 14.390625 L 335 14.390625 L 335 303 L 39.816406 303 Z M 39.816406 14.390625 " clip-rule="nonzero"/></clipPath><clipPath id="c30e00e67c"><path d="M 278 29 L 311 29 L 311 63 L 278 63 Z M 278 29 " clip-rule="nonzero"/></clipPath><clipPath id="af120e8830"><path d="M 263.070312 46.789062 L 293.703125 14.429688 L 326.0625 45.058594 L 295.429688 77.421875 Z M 263.070312 46.789062 " clip-rule="nonzero"/></clipPath><clipPath id="e65b6f847a"><path d="M 263.070312 46.789062 L 293.703125 14.429688 L 326.0625 45.058594 L 295.429688 77.421875 Z M 263.070312 46.789062 " clip-rule="nonzero"/></clipPath><clipPath id="acd7ccb542"><path d="M 305 69 L 337 69 L 337 101 L 305 101 Z M 305 69 " clip-rule="nonzero"/></clipPath><clipPath id="e250899e76"><path d="M 299.851562 75.523438 L 330.363281 63.980469 L 341.902344 94.496094 L 311.390625 106.035156 Z M 299.851562 75.523438 " clip-rule="nonzero"/></clipPath><clipPath id="c3dd9f20ae"><path d="M 299.851562 75.523438 L 330.363281 63.980469 L 341.902344 94.496094 L 311.390625 106.035156 Z M 299.851562 75.523438 " clip-rule="nonzero"/></clipPath><clipPath id="435bd57f9a"><path d="M 320 109 L 341 109 L 341 131 L 320 131 Z M 320 109 " clip-rule="nonzero"/></clipPath><clipPath id="dfd8bc5ba0"><path d="M 318.621094 111.515625 L 339.050781 108.273438 L 342.296875 128.703125 L 321.863281 131.949219 Z M 318.621094 111.515625 " clip-rule="nonzero"/></clipPath><clipPath id="e2284e8d6e"><path d="M 318.621094 111.515625 L 339.050781 108.273438 L 342.296875 128.703125 L 321.863281 131.949219 Z M 318.621094 111.515625 " clip-rule="nonzero"/></clipPath><clipPath id="8e62badcd7"><path d="M 238 4 L 270 4 L 270 36 L 238 36 Z M 238 4 " clip-rule="nonzero"/></clipPath><clipPath id="e347d7cb47"><path d="M 242.976562 0 L 274.300781 9.121094 L 265.179688 40.441406 L 233.855469 31.320312 Z M 242.976562 0 " clip-rule="nonzero"/></clipPath><clipPath id="0283ac5322"><path d="M 242.976562 0 L 274.300781 9.121094 L 265.179688 40.441406 L 233.855469 31.320312 Z M 242.976562 0 " clip-rule="nonzero"/></clipPath><clipPath id="6555412ece"><path d="M 204 2 L 226 2 L 226 24 L 204 24 Z M 204 2 " clip-rule="nonzero"/></clipPath><clipPath id="17ce511c47"><path d="M 204.914062 23.703125 L 203.890625 3.039062 L 224.554688 2.019531 L 225.574219 22.679688 Z M 204.914062 23.703125 " clip-rule="nonzero"/></clipPath><clipPath id="a35e444332"><path d="M 204.914062 23.703125 L 203.890625 3.039062 L 224.554688 2.019531 L 225.574219 22.679688 Z M 204.914062 23.703125 " clip-rule="nonzero"/></clipPath></defs><rect x="-38.4" width="460.8" fill="#ffffff" y="-38.399999" height="460.799983" fill-opacity="1"/><rect x="-38.4" width="460.8" fill="#ffffff" y="-38.399999" height="460.799983" fill-opacity="1"/><rect x="-38.4" width="460.8" fill="#ffffff" y="-38.399999" height="460.799983" fill-opacity="1"/><g fill="#00bf63" fill-opacity="1"><g transform="translate(59.695686, 377.677068)"><g><path d="M 2.9375 -14.03125 C 3.039062 -11.757812 3.632812 -9.695312 4.71875 -7.84375 C 5.800781 -6 7.28125 -4.425781 9.15625 -3.125 C 11.03125 -1.832031 13.234375 -0.828125 15.765625 -0.109375 C 18.304688 0.597656 21.082031 0.953125 24.09375 0.953125 C 27.15625 0.953125 29.910156 0.582031 32.359375 -0.15625 C 34.816406 -0.894531 36.914062 -1.953125 38.65625 -3.328125 C 40.40625 -4.703125 41.753906 -6.363281 42.703125 -8.3125 C 43.660156 -10.269531 44.140625 -12.4375 44.140625 -14.8125 C 44.140625 -18.09375 43.316406 -20.773438 41.671875 -22.859375 C 40.035156 -24.941406 37.988281 -26.679688 35.53125 -28.078125 C 33.082031 -29.484375 30.414062 -30.660156 27.53125 -31.609375 C 24.65625 -32.566406 21.988281 -33.570312 19.53125 -34.625 C 17.070312 -35.675781 15.023438 -36.890625 13.390625 -38.265625 C 11.753906 -39.640625 10.9375 -41.460938 10.9375 -43.734375 C 10.9375 -45.003906 11.210938 -46.191406 11.765625 -47.296875 C 12.316406 -48.410156 13.132812 -49.375 14.21875 -50.1875 C 15.300781 -51.007812 16.632812 -51.671875 18.21875 -52.171875 C 19.800781 -52.671875 21.625 -52.921875 23.6875 -52.921875 C 27.125 -52.921875 30.039062 -52.195312 32.4375 -50.75 C 34.84375 -49.300781 36.257812 -47.015625 36.6875 -43.890625 L 42.078125 -43.890625 C 41.753906 -45.847656 41.035156 -47.601562 39.921875 -49.15625 C 38.816406 -50.71875 37.421875 -52.039062 35.734375 -53.125 C 34.046875 -54.207031 32.128906 -55.023438 29.984375 -55.578125 C 27.847656 -56.140625 25.617188 -56.421875 23.296875 -56.421875 C 20.867188 -56.421875 18.554688 -56.101562 16.359375 -55.46875 C 14.171875 -54.832031 12.242188 -53.90625 10.578125 -52.6875 C 8.910156 -51.476562 7.585938 -49.945312 6.609375 -48.09375 C 5.640625 -46.25 5.15625 -44.132812 5.15625 -41.75 C 5.15625 -38.632812 5.945312 -36.125 7.53125 -34.21875 C 9.113281 -32.320312 11.101562 -30.738281 13.5 -29.46875 C 15.90625 -28.207031 18.507812 -27.125 21.3125 -26.21875 C 24.113281 -25.320312 26.710938 -24.304688 29.109375 -23.171875 C 31.515625 -22.035156 33.507812 -20.648438 35.09375 -19.015625 C 36.6875 -17.378906 37.484375 -15.1875 37.484375 -12.4375 C 37.484375 -9.007812 36.226562 -6.5 33.71875 -4.90625 C 31.207031 -3.320312 27.863281 -2.53125 23.6875 -2.53125 C 20.363281 -2.53125 17.695312 -2.96875 15.6875 -3.84375 C 13.675781 -4.71875 12.144531 -5.757812 11.09375 -6.96875 C 10.039062 -8.1875 9.328125 -9.441406 8.953125 -10.734375 C 8.585938 -12.023438 8.375 -13.125 8.3125 -14.03125 Z M 2.9375 -14.03125 "/></g></g></g><g fill="#00bf63" fill-opacity="1"><g transform="translate(113.179778, 377.677068)"><g><path d="M 12.671875 -55.46875 L 12.671875 0 L 19.890625 0 L 19.890625 -55.46875 Z M 12.671875 -55.46875 "/></g></g></g><g fill="#00bf63" fill-opacity="1"><g transform="translate(149.707652, 377.677068)"><g><path d="M 59.984375 -24.71875 L 44.296875 -24.71875 L 44.296875 -21.46875 L 53.171875 -21.46875 L 53.171875 -7.125 C 50.785156 -5.59375 48.351562 -4.457031 45.875 -3.71875 C 43.394531 -2.976562 40.570312 -2.609375 37.40625 -2.609375 C 33.226562 -2.609375 29.582031 -3.242188 26.46875 -4.515625 C 23.351562 -5.785156 20.765625 -7.539062 18.703125 -9.78125 C 16.640625 -12.03125 15.09375 -14.695312 14.0625 -17.78125 C 13.03125 -20.875 12.515625 -24.269531 12.515625 -27.96875 C 12.515625 -31.613281 13.003906 -34.96875 13.984375 -38.03125 C 14.960938 -41.09375 16.425781 -43.734375 18.375 -45.953125 C 20.332031 -48.171875 22.722656 -49.882812 25.546875 -51.09375 C 28.378906 -52.3125 31.671875 -52.921875 35.421875 -52.921875 C 37.898438 -52.921875 40.222656 -52.65625 42.390625 -52.125 C 44.554688 -51.601562 46.484375 -50.921875 48.171875 -50.078125 C 49.859375 -49.234375 51.242188 -48.269531 52.328125 -47.1875 C 53.410156 -46.101562 54.113281 -45.003906 54.4375 -43.890625 L 60.140625 -43.890625 C 59.660156 -45.054688 58.851562 -46.363281 57.71875 -47.8125 C 56.582031 -49.269531 55.035156 -50.628906 53.078125 -51.890625 C 51.128906 -53.160156 48.710938 -54.234375 45.828125 -55.109375 C 42.953125 -55.984375 39.5625 -56.421875 35.65625 -56.421875 C 31.164062 -56.421875 27.03125 -55.785156 23.25 -54.515625 C 19.476562 -53.242188 16.21875 -51.421875 13.46875 -49.046875 C 10.71875 -46.671875 8.578125 -43.75 7.046875 -40.28125 C 5.515625 -36.820312 4.75 -32.90625 4.75 -28.53125 C 4.75 -24.78125 5.34375 -21.144531 6.53125 -17.625 C 7.71875 -14.113281 9.539062 -10.972656 12 -8.203125 C 14.457031 -5.429688 17.585938 -3.210938 21.390625 -1.546875 C 25.191406 0.117188 29.734375 0.953125 35.015625 0.953125 C 38.984375 0.953125 42.5 0.519531 45.5625 -0.34375 C 48.625 -1.21875 51.160156 -2.1875 53.171875 -3.25 L 53.171875 0 L 59.984375 0 Z M 59.984375 -24.71875 "/></g></g></g><g fill="#00bf63" fill-opacity="1"><g transform="translate(218.404805, 377.677068)"><g><path d="M 9.515625 0 L 29.390625 0 C 32.929688 0 35.914062 -0.457031 38.34375 -1.375 C 40.78125 -2.300781 42.738281 -3.503906 44.21875 -4.984375 C 45.695312 -6.460938 46.765625 -8.140625 47.421875 -10.015625 C 48.078125 -11.898438 48.40625 -13.789062 48.40625 -15.6875 C 48.40625 -18.695312 47.757812 -21.097656 46.46875 -22.890625 C 45.175781 -24.691406 43.628906 -26.066406 41.828125 -27.015625 C 40.035156 -27.960938 38.1875 -28.59375 36.28125 -28.90625 C 34.382812 -29.226562 32.851562 -29.414062 31.6875 -29.46875 L 31.6875 -29.796875 C 33.539062 -29.796875 35.285156 -30.148438 36.921875 -30.859375 C 38.554688 -31.578125 39.992188 -32.503906 41.234375 -33.640625 C 42.484375 -34.773438 43.476562 -36.09375 44.21875 -37.59375 C 44.957031 -39.101562 45.328125 -40.703125 45.328125 -42.390625 C 45.328125 -43.867188 45.007812 -45.375 44.375 -46.90625 C 43.738281 -48.4375 42.769531 -49.832031 41.46875 -51.09375 C 40.175781 -52.363281 38.515625 -53.410156 36.484375 -54.234375 C 34.453125 -55.054688 32.0625 -55.46875 29.3125 -55.46875 L 9.515625 -55.46875 Z M 16.71875 -3.484375 L 16.71875 -27.734375 L 25.4375 -27.734375 C 28.019531 -27.734375 30.257812 -27.390625 32.15625 -26.703125 C 34.0625 -26.015625 35.632812 -25.085938 36.875 -23.921875 C 38.125 -22.765625 39.050781 -21.421875 39.65625 -19.890625 C 40.257812 -18.359375 40.5625 -16.742188 40.5625 -15.046875 C 40.5625 -13.203125 40.234375 -11.566406 39.578125 -10.140625 C 38.921875 -8.710938 38.035156 -7.492188 36.921875 -6.484375 C 35.816406 -5.484375 34.507812 -4.734375 33 -4.234375 C 31.5 -3.734375 29.898438 -3.484375 28.203125 -3.484375 Z M 16.71875 -31.21875 L 16.71875 -51.984375 L 26.390625 -51.984375 C 28.441406 -51.984375 30.191406 -51.691406 31.640625 -51.109375 C 33.097656 -50.523438 34.289062 -49.753906 35.21875 -48.796875 C 36.144531 -47.847656 36.816406 -46.765625 37.234375 -45.546875 C 37.660156 -44.335938 37.875 -43.128906 37.875 -41.921875 C 37.875 -40.378906 37.566406 -38.945312 36.953125 -37.625 C 36.347656 -36.3125 35.503906 -35.175781 34.421875 -34.21875 C 33.335938 -33.269531 32.097656 -32.53125 30.703125 -32 C 29.304688 -31.476562 27.816406 -31.21875 26.234375 -31.21875 Z M 16.71875 -31.21875 "/></g></g></g><g fill="#00bf63" fill-opacity="1"><g transform="translate(274.741342, 377.677068)"><g><path d="M 2.9375 -14.03125 C 3.039062 -11.757812 3.632812 -9.695312 4.71875 -7.84375 C 5.800781 -6 7.28125 -4.425781 9.15625 -3.125 C 11.03125 -1.832031 13.234375 -0.828125 15.765625 -0.109375 C 18.304688 0.597656 21.082031 0.953125 24.09375 0.953125 C 27.15625 0.953125 29.910156 0.582031 32.359375 -0.15625 C 34.816406 -0.894531 36.914062 -1.953125 38.65625 -3.328125 C 40.40625 -4.703125 41.753906 -6.363281 42.703125 -8.3125 C 43.660156 -10.269531 44.140625 -12.4375 44.140625 -14.8125 C 44.140625 -18.09375 43.316406 -20.773438 41.671875 -22.859375 C 40.035156 -24.941406 37.988281 -26.679688 35.53125 -28.078125 C 33.082031 -29.484375 30.414062 -30.660156 27.53125 -31.609375 C 24.65625 -32.566406 21.988281 -33.570312 19.53125 -34.625 C 17.070312 -35.675781 15.023438 -36.890625 13.390625 -38.265625 C 11.753906 -39.640625 10.9375 -41.460938 10.9375 -43.734375 C 10.9375 -45.003906 11.210938 -46.191406 11.765625 -47.296875 C 12.316406 -48.410156 13.132812 -49.375 14.21875 -50.1875 C 15.300781 -51.007812 16.632812 -51.671875 18.21875 -52.171875 C 19.800781 -52.671875 21.625 -52.921875 23.6875 -52.921875 C 27.125 -52.921875 30.039062 -52.195312 32.4375 -50.75 C 34.84375 -49.300781 36.257812 -47.015625 36.6875 -43.890625 L 42.078125 -43.890625 C 41.753906 -45.847656 41.035156 -47.601562 39.921875 -49.15625 C 38.816406 -50.71875 37.421875 -52.039062 35.734375 -53.125 C 34.046875 -54.207031 32.128906 -55.023438 29.984375 -55.578125 C 27.847656 -56.140625 25.617188 -56.421875 23.296875 -56.421875 C 20.867188 -56.421875 18.554688 -56.101562 16.359375 -55.46875 C 14.171875 -54.832031 12.242188 -53.90625 10.578125 -52.6875 C 8.910156 -51.476562 7.585938 -49.945312 6.609375 -48.09375 C 5.640625 -46.25 5.15625 -44.132812 5.15625 -41.75 C 5.15625 -38.632812 5.945312 -36.125 7.53125 -34.21875 C 9.113281 -32.320312 11.101562 -30.738281 13.5 -29.46875 C 15.90625 -28.207031 18.507812 -27.125 21.3125 -26.21875 C 24.113281 -25.320312 26.710938 -24.304688 29.109375 -23.171875 C 31.515625 -22.035156 33.507812 -20.648438 35.09375 -19.015625 C 36.6875 -17.378906 37.484375 -15.1875 37.484375 -12.4375 C 37.484375 -9.007812 36.226562 -6.5 33.71875 -4.90625 C 31.207031 -3.320312 27.863281 -2.53125 23.6875 -2.53125 C 20.363281 -2.53125 17.695312 -2.96875 15.6875 -3.84375 C 13.675781 -4.71875 12.144531 -5.757812 11.09375 -6.96875 C 10.039062 -8.1875 9.328125 -9.441406 8.953125 -10.734375 C 8.585938 -12.023438 8.375 -13.125 8.3125 -14.03125 Z M 2.9375 -14.03125 "/></g></g></g><g clip-path="url(#87edb4af60)"><path fill="#00bf63" d="M 183.875 14.507812 L 183.875 14.511719 C 145.667969 14.511719 109.027344 29.699219 82.011719 56.730469 C 54.996094 83.761719 39.816406 120.425781 39.816406 158.65625 C 39.816406 196.882812 54.996094 233.546875 82.011719 260.582031 C 109.027344 287.613281 145.667969 302.800781 183.875 302.800781 C 186.570312 302.800781 189.261719 302.6875 191.953125 302.515625 C 154.792969 301.039062 119.648438 285.242188 93.863281 258.429688 C 68.078125 231.617188 53.652344 195.863281 53.609375 158.65625 C 53.609375 121.835938 67.722656 86.417969 93.011719 59.664062 C 118.300781 32.914062 152.859375 16.859375 189.601562 14.796875 C 187.695312 14.664062 185.785156 14.566406 183.875 14.511719 Z M 194.679688 94.730469 L 96.121094 186.636719 L 194.921875 131.835938 L 302.617188 193.6875 L 266.082031 160.1875 L 266.761719 160.1875 L 266.761719 124.917969 L 246.839844 124.917969 L 246.839844 142.546875 Z M 332.105469 138.679688 C 332.105469 138.679688 332.105469 138.679688 332.105469 138.742188 C 332.101562 138.742188 332.101562 138.742188 332.105469 138.679688 Z M 332.105469 138.742188 C 334.769531 173.027344 324.082031 207.019531 302.285156 233.609375 C 280.476562 260.207031 249.230469 277.339844 215.089844 281.417969 C 181.300781 285.398438 147.269531 276.289062 119.972656 255.957031 C 92.683594 235.625 74.203125 205.613281 68.324219 172.078125 C 68.40625 173.84375 68.53125 175.609375 68.679688 177.371094 C 72.824219 212.476562 90.738281 244.492188 118.472656 266.382812 C 146.210938 288.273438 181.503906 298.238281 216.589844 294.09375 C 251.667969 289.945312 283.667969 272.019531 305.542969 244.269531 C 327.421875 216.511719 337.382812 181.199219 333.238281 146.097656 C 332.929688 143.636719 332.546875 141.183594 332.101562 138.742188 Z M 176.632812 156.039062 L 176.632812 172.480469 L 193.058594 172.480469 L 193.058594 156.039062 Z M 197.789062 156.039062 L 197.789062 172.480469 L 214.21875 172.480469 L 214.21875 156.039062 Z M 176.632812 176.382812 L 176.632812 192.824219 L 193.058594 192.824219 L 193.058594 176.382812 Z M 198.203125 176.382812 L 198.203125 192.824219 L 214.636719 192.824219 L 214.636719 176.382812 Z M 198.203125 176.382812 " fill-opacity="1" fill-rule="nonzero"/></g><g clip-path="url(#c30e00e67c)"><g clip-path="url(#af120e8830)"><g clip-path="url(#e65b6f847a)"><path fill="#edb66d" d="M 278.386719 30.609375 C 287.324219 39.070312 287.707031 53.167969 279.25 62.105469 C 287.710938 53.167969 301.8125 52.78125 310.746094 61.242188 C 301.808594 52.78125 301.421875 38.679688 309.882812 29.746094 C 301.421875 38.679688 287.324219 39.070312 278.386719 30.609375 Z M 278.386719 30.609375 " fill-opacity="1" fill-rule="nonzero"/></g></g></g><g clip-path="url(#acd7ccb542)"><g clip-path="url(#e250899e76)"><g clip-path="url(#c3dd9f20ae)"><path fill="#edb66d" d="M 315.105469 69.75 C 318.292969 78.175781 314.046875 87.589844 305.621094 90.777344 C 314.046875 87.589844 323.460938 91.839844 326.648438 100.265625 C 323.460938 91.839844 327.707031 82.425781 336.132812 79.238281 C 327.707031 82.425781 318.292969 78.175781 315.105469 69.75 Z M 315.105469 69.75 " fill-opacity="1" fill-rule="nonzero"/></g></g></g><g clip-path="url(#435bd57f9a)"><g clip-path="url(#dfd8bc5ba0)"><g clip-path="url(#e2284e8d6e)"><path fill="#edb66d" d="M 328.835938 109.894531 C 329.730469 115.539062 325.882812 120.835938 320.242188 121.734375 C 325.882812 120.835938 331.183594 124.683594 332.082031 130.328125 C 331.183594 124.683594 335.03125 119.386719 340.675781 118.488281 C 335.03125 119.386719 329.730469 115.539062 328.835938 109.894531 Z M 328.835938 109.894531 " fill-opacity="1" fill-rule="nonzero"/></g></g></g><g clip-path="url(#8e62badcd7)"><g clip-path="url(#e347d7cb47)"><g clip-path="url(#0283ac5322)"><path fill="#edb66d" d="M 258.640625 4.5625 C 256.121094 13.210938 247.066406 18.179688 238.417969 15.660156 C 247.066406 18.179688 252.035156 27.234375 249.515625 35.882812 C 252.035156 27.234375 261.089844 22.265625 269.738281 24.78125 C 261.089844 22.265625 256.121094 13.210938 258.640625 4.5625 Z M 258.640625 4.5625 " fill-opacity="1" fill-rule="nonzero"/></g></g></g><g clip-path="url(#6555412ece)"><g clip-path="url(#17ce511c47)"><g clip-path="url(#a35e444332)"><path fill="#edb66d" d="M 204.402344 13.371094 C 210.109375 13.089844 214.960938 17.484375 215.242188 23.191406 C 214.960938 17.484375 219.359375 12.632812 225.0625 12.347656 C 219.359375 12.632812 214.503906 8.234375 214.222656 2.527344 C 214.503906 8.234375 210.109375 13.089844 204.402344 13.371094 Z M 204.402344 13.371094 " fill-opacity="1" fill-rule="nonzero"/></g></g></g></svg>